HIERARCHY
ROOT Hips
{
	OFFSET 0.00000 0.00000 0.00000
	CHANNELS 6 Xposition Yposition Zposition Yrotation Zrotation Xrotation 
	JOINT Lumbar
	{
		OFFSET 0 0 0
		CHANNELS 3 Zrotation Xrotation Yrotation
		JOINT Neck
		{
			OFFSET 0.00 0.2701 0.00
			CHANNELS 3 Zrotation Xrotation Yrotation
			End Site
			{
				OFFSET 0.00 0.1379 0.00
			}
		}
		JOINT RightShoulder
		{
			OFFSET 0.0119 0.2289 0.1181
			CHANNELS 3 Zrotation Xrotation Yrotation
			JOINT RightElbow
			{
				OFFSET 0.00 -0.1475 0.00
				CHANNELS 2 Zrotation Yrotation
				JOINT RightWrist
				{
					OFFSET 0.00 -0.1605 0.00
					CHANNELS 2 Zrotation Xrotation
					End Site
					{
						OFFSET 0.0040 -0.1068 0.0006
					}
				}
			}
		}
		JOINT LeftShoulder
		{
			OFFSET 0.0119 0.2289 -0.1181
			CHANNELS 3 Zrotation Xrotation Yrotation
			JOINT LeftElbow
			{
				OFFSET 0.00 -0.1475 0.00
				CHANNELS 2 Zrotation Yrotation
				JOINT LeftWrist
				{
					OFFSET 0.00 -0.1605 0.00
					CHANNELS 2 Zrotation Xrotation
					End Site
					{
						OFFSET 0.0040 -0.1068 -0.0006
					}
				}
			}
		}
	}
	JOINT RightHip
	{
		OFFSET 0.0316 -0.0424 0.0458
		CHANNELS 3 Zrotation Xrotation Yrotation
		JOINT RightKnee
		{
			OFFSET 0.00 -0.2438 0.00
			CHANNELS 1 Zrotation
			JOINT RightAnkle
			{
				OFFSET 0.00 -0.2449 0.00
				CHANNELS 3 Zrotation Xrotation Yrotation
				End Site
				{
					OFFSET 0.1237 -0.0542 0.0051
				}
			}
		}
	}
	JOINT LeftHip
	{
		OFFSET 0.0316 -0.0424 -0.0458
		CHANNELS 3 Zrotation Xrotation Yrotation
		JOINT LeftKnee
		{
			OFFSET 0.00 -0.2438 0.00
			CHANNELS 1 Zrotation
			JOINT LeftAnkle
			{
				OFFSET 0.00 -0.2449 0.00
				CHANNELS 3 Zrotation Xrotation Yrotation
				End Site
				{
					OFFSET 0.1237 -0.0542 -0.0051
				}
			}
		}
	}
}
MOTION
Frames: 22
Frame Time: 0.02
-8e-05 2e-05 2e-05 20.23797 -34.95749 -3.06824 57.77124 -0.23014 0.06067 -10.0862 -1.66699 -1.2611 153.886 -78.84918 -55.01578 12.81282 81.07649 2.8434 -5.60551 166.38745 78.14295 55.19268 11.64817 -72.80933 0.14277 8.42171 50.67531 -0.97108 -2.12868 -18.95082 -8.48807 -4.29337 -4.4315 53.25394 3.65878 10.52728 -24.33911 -7.82872 3.51373 4.03576
-0.00014 2e-05 0 20.24771 -34.96258 -3.07333 57.76584 -0.23827 0.0605 -10.12998 -1.65504 -1.2596 154.02812 -78.84965 -54.91004 12.79937 81.076 2.88607 -5.59243 166.38732 78.08476 55.3865 11.58949 -72.78626 0.18126 8.37614 50.67256 -1.08171 -2.7877 -18.95041 -8.4291 -4.25168 -4.40613 53.26078 3.68671 10.66834 -24.33933 -7.82294 3.51009 4.02985
-0.0002 1e-05 -2e-05 20.25742 -34.96764 -3.0784 57.76044 -0.24638 0.06034 -10.17373 -1.6431 -1.2581 154.16952 -78.85021 -54.80477 12.78592 81.07553 2.92862 -5.57937 166.38715 78.02678 55.58041 11.53079 -72.76318 0.21975 8.33059 50.6698 -1.19212 -3.44532 -18.95001 -8.37026 -4.21008 -4.38082 53.26759 3.71457 10.80903 -24.33955 -7.81716 3.50644 4.02395
-0.00026 0 -3e-05 20.26713 -34.97271 -3.08348 57.75506 -0.25449 0.06017 -10.21739 -1.63118 -1.2566 154.31131 -78.85068 -54.69931 12.77251 81.07503 2.97116 -5.56633 166.38713 77.96875 55.7738 11.47226 -72.74013 0.25814 8.28516 50.66706 -1.30243 -4.10242 -18.9496 -8.31146 -4.16851 -4.35552 53.27441 3.74242 10.94967 -24.33977 -7.8114 3.50281 4.01806
-0.00032 -1e-05 -5e-05 20.27684 -34.9778 -3.08856 57.74966 -0.26261 0.06 -10.26105 -1.61923 -1.25509 154.45351 -78.85106 -54.59351 12.7591 81.07453 3.01382 -5.55327 166.38686 77.91056 55.96669 11.41379 -72.71722 0.2965 8.23972 50.66434 -1.41294 -4.76067 -18.9492 -8.25254 -4.12688 -4.33019 53.28126 3.77034 11.09064 -24.33999 -7.80563 3.49919 4.01217
-0.00038 -1e-05 -6e-05 20.28657 -34.98278 -3.09363 57.74427 -0.27071 0.05987 -10.30498 -1.60733 -1.2536 154.59302 -78.85202 -54.48947 12.74555 81.07416 3.05612 -5.54021 166.38674 77.85307 56.16267 11.35459 -72.69383 0.33528 8.1939 50.66147 -1.52312 -5.4169 -18.9488 -8.19386 -4.08535 -4.30492 53.28798 3.79806 11.23073 -24.34022 -7.79983 3.4955 4.00627
-0.00044 -2e-05 -8e-05 20.29626 -34.988 -3.09872 57.73888 -0.27884 0.05964 -10.34831 -1.59536 -1.25208 154.73883 -78.85171 -54.38151 12.73235 81.07344 3.0991 -5.52716 166.3871 77.79407 56.3526 11.29702 -72.67117 0.37313 8.14902 50.65893 -1.63383 -6.07652 -18.94838 -8.13477 -4.04365 -4.27954 53.29497 3.82615 11.37246 -24.34042 -7.79411 3.49194 4.00037
-0.0005 -3e-05 -0.0001 20.30597 -34.99298 -3.10379 57.73347 -0.28694 0.0595 -10.39222 -1.58344 -1.25059 154.87693 -78.85275 -54.27805 12.71874 81.07322 3.14145 -5.51412 166.38559 77.73676 56.54739 11.23779 -72.64834 0.4119 8.10307 50.65607 -1.74405 -6.73292 -18.94799 -8.07606 -4.00211 -4.25426 53.30169 3.85389 11.51263 -24.34065 -7.78832 3.48827 3.99448
-0.00056 -3e-05 -0.00011 20.31575 -34.99775 -3.10883 57.72812 -0.295 0.05948 -10.43677 -1.57159 -1.24914 155.01316 -78.85478 -54.17656 12.70496 81.07292 3.18306 -5.50101 166.38747 77.68032 56.75117 11.17707 -72.62327 0.45162 8.05656 50.65287 -1.85376 -7.38615 -18.94762 -8.01777 -3.96074 -4.22909 53.30816 3.88127 11.65117 -24.34089 -7.78241 3.48442 3.98859
-0.00062 -4e-05 -0.00013 20.32528 -35.00396 -3.11405 57.72266 -0.3033 0.05883 -10.47743 -1.55938 -1.24747 155.18287 -78.84913 -54.05314 12.69315 81.07097 3.22903 -5.48804 166.3869 77.61527 56.91243 11.12653 -72.60497 0.48533 8.0155 50.65177 -1.9667 -8.05994 -18.94708 -7.95696 -3.9183 -4.20326 53.31629 3.91091 11.79991 -24.34103 -7.77708 3.48149 3.98266
-0.00068 -5e-05 -0.00015 20.33526 -35.00699 -3.11885 57.71728 -0.31108 0.05946 -10.52642 -1.54793 -1.24626 155.26742 -78.86092 -53.98274 12.67653 81.07384 3.26573 -5.47496 166.38061 77.57069 57.15742 11.05354 -72.5763 0.53204 7.96152 50.64618 -2.07258 -8.68876 -18.94693 -7.90153 -3.87819 -4.17887 53.32081 3.93567 11.92659 -24.34142 -7.7706 3.4767 3.97685
-0.00071 -6e-05 -0.00018 20.34727 -35.00243 -3.12286 57.7133 -0.31752 0.06379 -10.5976 -1.53859 -1.24618 155.20807 -78.91093 -54.00814 12.65071 81.07739 3.27434 -5.46097 166.39924 77.56574 57.65237 10.92578 -72.49078 0.612 7.88077 50.62856 -2.161 -9.2062 -18.94755 -7.86028 -3.84397 -4.15804 53.31609 3.94799 11.99684 -24.34222 -7.76035 3.46605 3.97095
-0.00073 -8e-05 -0.00022 20.35961 -34.99447 -3.12636 57.70913 -0.32345 0.06933 -10.67728 -1.52997 -1.2466 155.02793 -78.98019 -54.09897 12.61834 81.08689 3.27205 -5.44759 166.37117 77.58569 58.20598 10.77401 -72.4029 0.70521 7.78358 50.60642 -2.24198 -9.67617 -18.94865 -7.82454 -3.81218 -4.13874 53.30766 3.95528 12.04437 -24.34336 -7.74904 3.45364 3.96522
-0.00076 -9e-05 -0.00026 20.37124 -34.98735 -3.12987 57.70435 -0.32951 0.0742 -10.75346 -1.52108 -1.24682 154.86821 -79.04698 -54.18849 12.58763 81.1034 3.2791 -5.43355 166.38058 77.60342 58.74727 10.62898 -72.33109 0.79426 7.6906 50.5861 -2.32511 -10.1601 -18.94968 -7.78667 -3.77961 -4.11903 53.30044 3.96425 12.09938 -24.34451 -7.73866 3.44256 3.95969
-0.00078 -0.0001 -0.0003 20.38513 -34.98321 -3.1344 57.70273 -0.33583 0.07968 -10.82802 -1.51217 -1.2468 154.9304 -79.08749 -54.14582 12.5665 81.0839 3.27614 -5.41861 166.45875 77.57752 59.31739 10.50227 -72.18448 0.87651 7.61899 50.56658 -2.41339 -10.67641 -18.9499 -7.74722 -3.74566 -4.09811 53.29507 3.97565 12.16556 -24.34484 -7.7265 3.42935 3.95302
-0.00081 -0.00012 -0.00034 20.39454 -34.97204 -3.13657 57.69418 -0.3417 0.08404 -10.9081 -1.50323 -1.24756 154.40567 -79.18709 -54.40943 12.51882 81.13456 3.28079 -5.40883 166.21026 77.655 59.72947 10.33079 -72.20752 0.97478 7.48941 50.54456 -2.48925 -11.11358 -18.95216 -7.71237 -3.71519 -4.08008 53.28516 3.98092 12.20408 -24.3471 -7.71768 3.42003 3.9487
-0.00085 -0.00017 -0.00036 20.39022 -34.94267 -3.13329 57.66909 -0.34474 0.08598 -10.99936 -1.49604 -1.24906 153.13641 -79.44019 -55.34623 12.44581 81.43624 3.40005 -5.38409 166.60643 77.945 60.69674 10.05176 -72.56484 1.1218 7.29044 50.51489 -2.53221 -11.34789 -18.9582 -7.68888 -3.69351 -4.06957 53.26245 3.96936 12.16285 -24.35362 -7.71932 3.42295 3.95142
-0.0009 -0.00023 -0.00037 20.3817 -34.90641 -3.12747 57.63642 -0.34771 0.08647 -11.09566 -1.48842 -1.25159 151.13995 -79.74846 -56.60109 12.34001 81.80091 3.51025 -5.36845 166.43131 78.34344 61.34942 9.72813 -73.11006 1.28076 7.02088 50.48347 -2.56307 -11.50359 -18.96672 -7.66981 -3.67528 -4.06192 53.23576 3.95195 12.09592 -24.36229 -7.72419 3.42968 3.95637
-0.00095 -0.00028 -0.00038 20.37585 -34.87286 -3.12224 57.60578 -0.35175 0.08711 -11.1917 -1.47969 -1.25446 148.89923 -80.04053 -57.83472 12.21581 82.09375 3.56515 -5.36961 165.45694 78.74526 61.44272 9.41631 -73.66791 1.43205 6.72257 50.45371 -2.59969 -11.69248 -18.97508 -7.64873 -3.65561 -4.053 53.21133 3.93808 12.04704 -24.37063 -7.72691 3.43393 3.95987
-0.00097 -0.00032 -0.00041 20.36645 -34.84038 -3.11943 57.58175 -0.35116 0.09035 -11.28189 -1.4765 -1.25386 149.0095 -80.31455 -58.62034 12.22224 82.55467 3.87107 -5.28857 168.77674 78.95529 64.36214 9.13314 -73.84507 1.6026 6.66677 50.41902 -2.63473 -11.88986 -18.97887 -7.6279 -3.63549 -4.04401 53.18383 3.92063 11.97179 -24.37618 -7.73242 3.44117 3.96519
-0.00106 -0.0004 -0.0004 20.36387 -34.8048 -3.11091 57.54133 -0.3605 0.0873 -11.38231 -1.46164 -1.26081 144.14124 -80.61554 -60.32557 11.96109 82.69862 3.65145 -5.37316 163.23639 79.553 61.4967 8.78785 -74.81815 1.72399 6.10654 50.39562 -2.67057 -12.05221 -18.99341 -7.60746 -3.61709 -4.03582 53.16314 3.9089 11.94402 -24.38815 -7.73298 3.44322 3.9673
-0.00131 -0.00058 -0.00033 20.37721 -34.75628 -3.08783 57.46422 -0.39473 0.07177 -11.53427 -1.41488 -1.28761 124.93897 -81.17644 -65.26998 10.86325 81.78873 1.99456 -5.9798 131.47314 81.51225 41.19508 8.21396 -78.31022 1.81238 4.01989 50.39218 -2.70894 -12.13107 -19.03157 -7.58748 -3.6028 -4.02931 53.15114 3.9182 12.06834 -24.41629 -7.7183 3.42921 3.95949
